<svg width="113" height="122" viewBox="0 0 113 122" fill="none" xmlns="http://www.w3.org/2000/svg">
<path d="M10.176 53.304C8.42667 53.304 7.104 53.0267 6.208 52.472C5.35467 51.96 4.77867 51.3627 4.48 50.68C4.224 49.9973 4.096 49.464 4.096 49.08C4.096 47.8427 4.65067 46.8187 5.76 46.008C6.912 45.1547 8.192 44.728 9.6 44.728C10.9653 44.728 12.6507 44.536 14.656 44.152C16.704 43.7253 18.8587 43.128 21.12 42.36C23.424 41.592 25.6213 40.632 27.712 39.48C29.8453 38.328 31.7013 37.0053 33.28 35.512C34.8587 34.0187 35.9467 32.376 36.544 30.584C35.6053 30.4133 34.6667 30.2853 33.728 30.2C32.7893 30.072 31.8507 30.008 30.912 30.008C27.7547 30.008 24.4907 30.3493 21.12 31.032C17.7493 31.7147 14.4 32.376 11.072 33.016C10.2613 33.1867 9.536 33.0373 8.896 32.568C8.81067 33.464 8.72533 34.296 8.64 35.064C8.59733 35.7893 8.55467 36.5787 8.512 37.432C8.42667 39.5227 8.23467 41.144 7.936 42.296C7.68 43.4053 7.38133 44.1947 7.04 44.664C6.69867 45.1333 6.336 45.4107 5.952 45.496C5.568 45.5813 5.20533 45.624 4.864 45.624C4.736 45.624 4.65067 45.624 4.608 45.624C3.84 45.624 3.11467 45.432 2.432 45.048C1.74933 44.664 1.19467 43.8747 0.768001 42.68C0.341334 41.4427 0.128 39.5867 0.128 37.112C0.128 29.2613 0.981334 22.6053 2.688 17.144C4.43733 11.64 6.93333 7.45866 10.176 4.6C13.4613 1.69866 17.3867 0.247997 21.952 0.247997C25.536 0.247997 28.3307 1.22933 30.336 3.192C32.3413 5.112 33.344 7.88533 33.344 11.512C33.344 13.3467 32.9813 15.1813 32.256 17.016C31.5307 18.8507 30.5067 20.664 29.184 22.456C29.9947 22.2853 30.784 22.1573 31.552 22.072C32.32 21.944 33.0453 21.88 33.728 21.88C37.7387 21.88 40.704 22.6053 42.624 24.056C44.544 25.464 45.504 27.3627 45.504 29.752C45.504 32.1413 44.8213 34.3813 43.456 36.472C42.1333 38.5627 40.3627 40.4827 38.144 42.232C35.968 43.9387 33.5573 45.496 30.912 46.904C28.2667 48.2693 25.6213 49.4427 22.976 50.424C20.3307 51.3627 17.8773 52.0667 15.616 52.536C13.3547 53.048 11.5413 53.304 10.176 53.304ZM9.664 25.976C9.92 25.848 10.1973 25.7627 10.496 25.72C14.336 25.08 17.28 24.2053 19.328 23.096C21.376 21.9867 22.784 20.6 23.552 18.936C24.32 17.272 24.704 15.288 24.704 12.984C24.704 12.3867 24.6187 11.7467 24.448 11.064C24.2773 10.3813 23.936 9.80533 23.424 9.336C22.9547 8.824 22.2293 8.568 21.248 8.568C18.0053 8.568 15.4667 10.04 13.632 12.984C11.84 15.8853 10.5173 20.216 9.664 25.976ZM57.2665 53.176C54.6212 53.176 52.4878 52.2587 50.8665 50.424C49.2452 48.5467 48.4345 45.5387 48.4345 41.4C48.4345 38.7547 48.7332 36.1093 49.3305 33.464C49.9705 30.776 50.8452 28.2373 51.9545 25.848C53.1065 23.416 54.4292 21.2613 55.9225 19.384C57.4585 17.5067 59.1438 16.0347 60.9785 14.968C62.8132 13.8587 64.7118 13.304 66.6745 13.304C70.0025 13.304 72.6052 14.2 74.4825 15.992C76.3598 17.784 77.2985 20.0667 77.2985 22.84C77.2985 24.9733 76.7012 26.9147 75.5065 28.664C74.3545 30.3707 72.7758 31.9067 70.7705 33.272C68.7652 34.6373 66.5252 35.8747 64.0505 36.984C61.5758 38.0933 59.0372 39.096 56.4345 39.992C56.2212 41.528 56.1145 42.8933 56.1145 44.088C56.1145 44.8133 56.5198 45.176 57.3305 45.176C59.2505 45.176 61.2985 44.8773 63.4745 44.28C65.6932 43.64 67.9332 42.8293 70.1945 41.848C72.4558 40.824 74.6318 39.7787 76.7225 38.712C78.8132 37.6027 80.7118 36.5573 82.4185 35.576C84.1678 34.552 85.5972 33.7413 86.7065 33.144C87.8585 32.504 88.6052 32.184 88.9465 32.184C89.8852 32.184 90.5678 32.4613 90.9945 33.016C91.4212 33.5707 91.6345 34.168 91.6345 34.808C91.6345 35.1067 91.0585 35.768 89.9065 36.792C88.7972 37.816 87.2612 39.032 85.2985 40.44C83.3785 41.8053 81.2025 43.2347 78.7705 44.728C76.3812 46.1787 73.8852 47.5653 71.2825 48.888C68.7225 50.168 66.2265 51.192 63.7945 51.96C61.4052 52.7707 59.2292 53.176 57.2665 53.176ZM57.5225 34.296C59.2718 33.272 60.9998 32.2053 62.7065 31.096C64.4558 29.944 65.9065 28.664 67.0585 27.256C68.2105 25.8053 68.7865 24.12 68.7865 22.2C68.7865 21.6453 68.6372 21.2827 68.3385 21.112C68.0398 20.8987 67.6132 20.792 67.0585 20.792C65.5652 20.792 64.1998 21.4533 62.9625 22.776C61.7678 24.0987 60.7012 25.8053 59.7625 27.896C58.8665 29.944 58.1198 32.0773 57.5225 34.296ZM3.968 115.512C2.85867 115.512 2.048 114.979 1.536 113.912C1.024 112.845 0.768001 110.947 0.768001 108.216C0.768001 104.376 1.00267 100.323 1.472 96.056C1.984 91.7467 2.64533 87.096 3.456 82.104C4.18133 78.136 5.90933 75.0853 8.64 72.952C11.4133 70.8187 15.1253 69.0693 19.776 67.704C22.6773 66.8507 25.6853 66.0613 28.8 65.336C31.9147 64.6107 34.8373 64.0347 37.568 63.608C40.3413 63.1387 42.624 62.904 44.416 62.904C45.7813 62.904 46.848 63.1173 47.616 63.544C48.384 63.9707 48.9173 64.504 49.216 65.144C49.5573 65.7413 49.728 66.296 49.728 66.808C49.728 67.6187 49.536 68.344 49.152 68.984C48.768 69.624 47.936 70.1147 46.656 70.456C46.1013 70.6267 44.928 70.9253 43.136 71.352C41.3867 71.736 39.232 72.2053 36.672 72.76C34.1547 73.3147 31.488 73.912 28.672 74.552C25.856 75.1493 23.1253 75.768 20.48 76.408C17.8773 77.176 15.9573 78.1147 14.72 79.224C13.5253 80.2907 12.736 81.848 12.352 83.896C12.2667 84.3227 12.1813 84.92 12.096 85.688C13.8453 85.1333 15.7227 84.6853 17.728 84.344C19.7333 84.0027 21.5893 83.7467 23.296 83.576C25.0027 83.4053 26.2613 83.32 27.072 83.32C27.9253 83.32 28.8213 83.4693 29.76 83.768C30.7413 84.024 31.5733 84.4293 32.256 84.984C32.9813 85.496 33.344 86.1573 33.344 86.968C33.344 87.736 33.0453 88.44 32.448 89.08C31.8507 89.6773 30.6347 90.2533 28.8 90.808C28.416 90.936 27.5413 91.1067 26.176 91.32C24.8533 91.5333 23.2747 91.8107 21.44 92.152C19.648 92.4507 17.8133 92.792 15.936 93.176C14.1013 93.56 12.48 93.9653 11.072 94.392C10.7733 96.696 10.496 99 10.24 101.304C9.984 103.608 9.77067 105.613 9.6 107.32C9.42933 108.984 9.30134 110.029 9.216 110.456C8.96 112.035 8.34133 113.272 7.36 114.168C6.37867 115.064 5.248 115.512 3.968 115.512ZM112.451 82.744C112.451 83.256 112.28 83.704 111.939 84.088C111.598 84.472 111.171 84.7707 110.659 84.984C109.934 85.2827 108.675 85.6667 106.883 86.136C105.091 86.6053 102.915 87.1387 100.355 87.736C97.8377 88.3333 95.1283 88.952 92.227 89.592C89.3257 90.1893 86.4243 90.7653 83.523 91.32C82.4137 95.416 81.283 99.64 80.131 103.992C78.979 108.301 77.827 112.547 76.675 116.728C76.2483 118.221 75.7363 119.352 75.139 120.12C74.5417 120.931 73.5177 121.336 72.067 121.336C70.4883 121.336 69.4217 120.824 68.867 119.8C68.355 118.819 68.291 117.475 68.675 115.768C69.7843 111.117 70.8083 106.787 71.747 102.776C72.7283 98.7653 73.5177 95.5227 74.115 93.048C71.555 93.4747 69.315 93.816 67.395 94.072C65.475 94.2853 64.1097 94.3707 63.299 94.328C62.403 94.2427 61.6563 93.88 61.059 93.24C60.4617 92.6 60.1843 91.8107 60.227 90.872C60.3123 90.0187 60.6963 89.2933 61.379 88.696C62.0617 88.056 62.8723 87.672 63.811 87.544C65.1337 87.416 66.8403 87.224 68.931 86.968C71.0217 86.712 73.3257 86.4133 75.843 86.072C76.3977 83.896 77.0377 81.656 77.763 79.352C78.4883 77.0053 79.235 74.7653 80.003 72.632C80.8137 70.456 81.5817 68.5573 82.307 66.936C83.0323 65.3147 83.6937 64.1413 84.291 63.416C84.7603 62.8613 85.3363 62.4347 86.019 62.136C86.7443 61.8373 87.4483 61.688 88.131 61.688C89.027 61.688 89.7523 62.008 90.307 62.648C90.8617 63.288 91.139 64.0347 91.139 64.888C91.139 65.2293 91.1177 65.592 91.075 65.976C91.0323 66.3173 90.947 66.6587 90.819 67C90.0083 69.1333 89.1337 71.7147 88.195 74.744C87.299 77.7733 86.3603 81.1013 85.379 84.728C88.579 84.2587 91.715 83.7893 94.787 83.32C97.9017 82.808 100.718 82.3387 103.235 81.912C105.795 81.4427 107.843 81.0373 109.379 80.696C110.232 80.3973 110.958 80.4613 111.555 80.888C112.152 81.272 112.451 81.8907 112.451 82.744Z" fill="white"/>
<path d="M50.491 115.96C49.2963 115.96 48.2297 115.555 47.291 114.744C46.395 113.933 45.947 112.611 45.947 110.776C45.947 109.795 46.075 108.408 46.331 106.616C46.6297 104.824 47.0137 102.883 47.483 100.792C47.9523 98.6587 48.4643 96.5467 49.019 94.456C49.6163 92.3653 50.1923 90.5093 50.747 88.888C51.3017 87.224 51.7923 85.9867 52.219 85.176C52.7737 84.1947 53.2857 83.5973 53.755 83.384C54.267 83.128 54.7577 83 55.227 83C56.0803 83 56.8697 83.256 57.595 83.768C58.363 84.28 58.747 85.4107 58.747 87.16C58.747 87.8427 58.619 88.952 58.363 90.488C58.107 91.9813 57.787 93.7307 57.403 95.736C57.019 97.7413 56.5923 99.8107 56.123 101.944C55.6963 104.077 55.2697 106.104 54.843 108.024C54.459 109.901 54.139 111.48 53.883 112.76C53.6697 113.827 53.2217 114.616 52.539 115.128C51.899 115.683 51.2163 115.96 50.491 115.96ZM57.851 76.664C56.443 76.664 55.1417 76.2587 53.947 75.448C52.7523 74.5947 52.155 73.2933 52.155 71.544C52.155 70.0933 52.5177 68.92 53.243 68.024C53.9683 67.128 54.8217 66.488 55.803 66.104C56.827 65.6773 57.723 65.464 58.491 65.464C59.259 65.464 60.1123 65.6347 61.051 65.976C61.9897 66.2747 62.8003 66.8507 63.483 67.704C64.2083 68.5147 64.571 69.688 64.571 71.224C64.571 72.248 64.2083 73.1867 63.483 74.04C62.7577 74.8507 61.8617 75.4907 60.795 75.96C59.771 76.4293 58.7897 76.664 57.851 76.664Z" fill="#1677FF"/>
</svg>
