<svg xmlns="http://www.w3.org/2000/svg" enable-background="new 0 0 512 512" version="1.0" viewBox="0 0 512 512"><path fill="#1b1b1b" d="M391.874,7.631h-276.35c-4.418,0-8,3.582-8,8v75.376c0,0.84,0.132,1.676,0.392,2.475
			c0.154,0.473,3.897,11.733,15.394,25.538c8.242,9.897,11.749,23.036,9.62,36.046l-8.755,53.504
			c-0.077,0.471-0.112,0.948-0.104,1.425l1.428,85.668c-2.813,5.314-10.695,21.029-18.735,44.541
			c-9.029,26.404-19.953,68.092-20.725,116.742c-0.037,2.307,0.925,4.518,2.638,6.065c1.744,1.575,43.943,38.576,150.035,38.576
			c3.909,0,7.245-2.825,7.89-6.68l7.098-42.418l7.098,42.418c0.645,3.855,3.982,6.68,7.89,6.68
			c106.092,0,148.29-37.001,150.034-38.576c1.713-1.547,2.674-3.757,2.638-6.065c-0.772-48.65-11.697-90.337-20.725-116.742
			c-8.04-23.512-15.922-39.227-18.735-44.541l1.428-85.668c0.008-0.477-0.027-0.954-0.104-1.425l-8.755-53.504
			c-2.129-13.011,1.377-26.149,9.62-36.046c11.497-13.805,15.24-25.066,15.394-25.538c0.26-0.799,0.392-1.634,0.392-2.475V15.631
			C399.874,11.213,396.293,7.631,391.874,7.631L391.874,7.631z" class="color484f69 svgShape"/><path fill="#1677ff" d="M247.67 69.564v38.609c0 2.916-2.364 5.279-5.279 5.279h-34.61c-3.408 0-6.557-1.817-8.262-4.767l-4.026-6.963c-3.769-6.519-2.219-14.806 3.652-19.522 9.015-7.244 23.896-16.403 42.774-17.896C245.01 64.059 247.67 66.463 247.67 69.564zM241.286 190.258h-24.602c-6.239 0-11.296-5.058-11.296-11.296V134.09c0-6.239 5.058-11.296 11.296-11.296h24.602c3.526 0 6.383 2.858 6.383 6.383v54.697C247.67 187.4 244.812 190.258 241.286 190.258zM242.594 197.523h-23.593c-6.563 0-11.883 5.32-11.883 11.883v21.057c0 32.231 7.746 63.991 22.585 92.603l8.385 16.168c2.447 4.718 9.581 2.978 9.581-2.337V202.598C247.67 199.795 245.397 197.523 242.594 197.523zM155.261 92.9l15.916 18.076c6.706 7.616 10.405 17.415 10.405 27.563v22.063c0 1.734-2.036 2.668-3.35 1.536l-13.895-11.965c-8.016-6.902-12.625-16.955-12.625-27.533v-28.4C151.712 92.371 154.026 91.497 155.261 92.9zM157.853 155.36l15.766 14.607c5.078 4.704 7.964 11.313 7.964 18.234v16.516c0 3.311-4.049 4.917-6.318 2.506l-16.227-17.241c-4.705-4.999-7.325-11.605-7.325-18.47v-13.469C151.712 154.851 155.512 153.191 157.853 155.36zM153.221 191.165l12.614 13.48c17.793 19.013 28.047 43.859 28.845 69.887l.311 10.155c.135 4.417-5.358 6.548-8.237 3.196l-31.21-36.337c-7.949-9.255-11.874-21.3-10.905-33.461l1.962-24.605C146.866 190.16 150.946 188.733 153.221 191.165zM202.457 341.16l30.358 43.147c4.292 6.1 6.346 13.495 5.814 20.934l-5.659 79.226c-.53 7.423-10.935 8.623-13.141 1.516l-14.44-46.511-9.162-96.009C195.891 339.954 200.428 338.277 202.457 341.16zM259.729 69.564v38.609c0 2.916 2.364 5.279 5.279 5.279h34.61c3.408 0 6.557-1.817 8.262-4.767l4.026-6.963c3.769-6.519 2.219-14.806-3.652-19.522-9.015-7.244-23.896-16.403-42.774-17.896C262.389 64.059 259.729 66.463 259.729 69.564zM266.113 190.258h24.602c6.239 0 11.296-5.058 11.296-11.296V134.09c0-6.239-5.058-11.296-11.296-11.296h-24.602c-3.526 0-6.384 2.858-6.384 6.383v54.697C259.729 187.4 262.587 190.258 266.113 190.258zM264.805 197.523h23.593c6.563 0 11.883 5.32 11.883 11.883v21.057c0 32.231-7.746 63.991-22.585 92.603l-8.385 16.168c-2.447 4.718-9.581 2.978-9.581-2.337V202.598C259.729 199.795 262.001 197.523 264.805 197.523zM352.138 92.9l-15.916 18.076c-6.706 7.616-10.405 17.415-10.405 27.563v22.063c0 1.734 2.036 2.668 3.35 1.536l13.895-11.965c8.016-6.902 12.625-16.955 12.625-27.533v-28.4C355.687 92.371 353.373 91.497 352.138 92.9zM349.546 155.36l-15.766 14.607c-5.078 4.704-7.964 11.313-7.964 18.234v16.516c0 3.311 4.049 4.917 6.318 2.506l16.227-17.241c4.705-4.999 7.325-11.605 7.325-18.47v-13.469C355.687 154.851 351.886 153.191 349.546 155.36zM354.178 191.165l-12.614 13.48c-17.793 19.013-28.047 43.859-28.845 69.887l-.311 10.155c-.135 4.417 5.358 6.548 8.237 3.196l31.21-36.337c7.949-9.255 11.874-21.3 10.905-33.461l-1.962-24.605C360.533 190.16 356.453 188.733 354.178 191.165zM304.942 341.16l-30.358 43.147c-4.292 6.1-6.346 13.495-5.814 20.934l5.659 79.226c.53 7.423 10.935 8.623 13.141 1.516l14.44-46.511 9.162-96.009C311.508 339.954 306.971 338.277 304.942 341.16z" class="color9fabce svgShape"/><path fill="gray" d="M148.105 250.498l12.907 18.804c2.735 3.984 3.184 9.105 1.178 13.501-9.287 20.356-35.972 79.739-46.061 111.792-.824 2.62-4.671 2.217-4.906-.519-.718-8.367.187-22.196 7.811-42.231 9.993-26.262 18.857-49.496 22.992-60.328 1.633-4.277 2.467-8.811 2.467-13.389v-26.51C144.494 249.674 147.005 248.895 148.105 250.498zM362.044 250.498l-12.907 18.804c-2.735 3.984-3.184 9.105-1.178 13.501 9.287 20.356 35.972 79.739 46.061 111.792.824 2.62 4.671 2.217 4.906-.519.718-8.367-.187-22.196-7.811-42.231-9.993-26.262-18.857-49.496-22.992-60.328-1.633-4.277-2.467-8.811-2.467-13.389v-26.51C365.655 249.674 363.145 248.895 362.044 250.498z" class="colorff004f svgShape"/><path fill="#1677ff" d="M193.442 486.212c1.942-30.942-.539-62.169-7.502-92.586l-14.175-61.915c-1.83-7.992-12.162-8.829-15.107-1.227-11.6 29.942-29.948 81.806-31.735 114.469-.398 7.278-.631 13.858-.721 19.861C134.638 471.205 157.729 482.662 193.442 486.212zM313.957 486.212c-1.942-30.942.539-62.169 7.502-92.586l14.175-61.915c1.83-7.992 12.162-8.829 15.107-1.227 11.6 29.942 29.948 81.806 31.735 114.469.398 7.278.631 13.858.721 19.861C372.761 471.205 349.669 482.662 313.957 486.212zM247.423 30.568v16.119c0 2.743-2.006 5.133-4.863 5.794l-20.888 4.832c-10.774 2.492-27.945 10.577-27.945 10.577-5.973 6.163-36.108-43.292-12.473-43.292h59.763C244.555 24.598 247.423 27.271 247.423 30.568zM259.483 30.568v16.119c0 2.743 2.006 5.133 4.863 5.794l20.888 4.832c10.774 2.492 27.945 10.577 27.945 10.577 5.973 6.163 37.243-43.292 12.473-43.292H265.89C262.351 24.598 259.483 27.271 259.483 30.568z" class="color9fabce svgShape"/></svg>