<svg xmlns="http://www.w3.org/2000/svg" enable-background="new 0 0 512 512" version="1.0" viewBox="0 0 512 512"><path fill="#1b1b1b" d="M391.162,7.631h-276.35c-4.418,0-8,3.582-8,8v75.376c0,0.84,0.133,1.676,0.392,2.475
			c0.154,0.473,3.898,11.733,15.394,25.538c8.242,9.897,11.749,23.036,9.62,36.046l-8.755,53.504
			c-0.077,0.471-0.112,0.948-0.104,1.425l1.428,85.668c-2.813,5.314-10.695,21.029-18.735,44.541
			c-9.029,26.405-19.953,68.092-20.726,116.742c-0.037,2.307,0.925,4.518,2.638,6.065c1.744,1.575,43.943,38.576,150.035,38.576
			c3.909,0,7.245-2.825,7.89-6.68l7.098-42.418l7.098,42.418c0.645,3.855,3.982,6.68,7.89,6.68
			c106.092,0,148.29-37.001,150.035-38.576c1.713-1.546,2.674-3.757,2.638-6.065c-0.772-48.65-11.697-90.337-20.726-116.742
			c-8.04-23.512-15.922-39.227-18.735-44.541l1.428-85.668c0.008-0.477-0.027-0.954-0.104-1.425l-8.755-53.504
			c-2.129-13.011,1.377-26.149,9.62-36.046c11.496-13.805,15.24-25.065,15.394-25.538c0.26-0.799,0.392-1.634,0.392-2.475V15.631
			C399.162,11.213,395.58,7.631,391.162,7.631L391.162,7.631z" class="color484f69 svgShape"/><path fill="#1677ff" d="M246.957 69.564v38.609c0 2.916-2.364 5.279-5.279 5.279h-34.61c-3.408 0-6.557-1.817-8.262-4.767l-4.026-6.963c-3.769-6.519-2.219-14.806 3.652-19.522 9.015-7.244 23.896-16.403 42.774-17.896C244.297 64.059 246.957 66.463 246.957 69.564zM240.573 190.258h-24.602c-6.239 0-11.296-5.058-11.296-11.296V134.09c0-6.239 5.058-11.296 11.296-11.296h24.602c3.525 0 6.383 2.858 6.383 6.383v54.697C246.957 187.4 244.099 190.258 240.573 190.258zM241.881 197.523h-23.593c-6.563 0-11.883 5.32-11.883 11.883v21.057c0 32.231 7.746 63.991 22.585 92.603l8.385 16.168c2.447 4.718 9.581 2.978 9.581-2.337V202.598C246.957 199.795 244.684 197.523 241.881 197.523zM154.548 92.9l15.916 18.076c6.706 7.616 10.405 17.415 10.405 27.563v22.063c0 1.734-2.036 2.668-3.35 1.536l-13.895-11.965c-8.016-6.902-12.625-16.955-12.625-27.533v-28.4C150.999 92.371 153.313 91.497 154.548 92.9zM157.14 155.36l15.766 14.607c5.078 4.704 7.964 11.313 7.964 18.234v16.516c0 3.311-4.049 4.917-6.318 2.506l-16.227-17.241c-4.705-4.999-7.325-11.605-7.325-18.47v-13.469C150.999 154.851 154.799 153.191 157.14 155.36zM152.508 191.165l12.614 13.48c17.793 19.013 28.047 43.859 28.845 69.887l.311 10.155c.135 4.417-5.358 6.548-8.237 3.196l-31.21-36.337c-7.949-9.255-11.874-21.3-10.905-33.461l1.962-24.605C146.153 190.16 150.233 188.733 152.508 191.165z" class="color9fabce svgShape"/><path fill="gray" d="M201.743,341.16l30.358,43.147c4.292,6.1,6.346,13.495,5.814,20.934l-5.659,79.226
		c-0.53,7.423-10.935,8.623-13.141,1.516l-14.44-46.511l-9.162-96.009C195.178,339.954,199.715,338.277,201.743,341.16z" class="colorff004f svgShape"/><path fill="#1677ff" d="M259.016 69.564v38.609c0 2.916 2.364 5.279 5.279 5.279h34.61c3.408 0 6.557-1.817 8.262-4.767l4.026-6.963c3.769-6.519 2.219-14.806-3.652-19.522-9.015-7.244-23.896-16.403-42.774-17.896C261.675 64.059 259.016 66.463 259.016 69.564zM265.4 190.258h24.602c6.239 0 11.296-5.058 11.296-11.296V134.09c0-6.239-5.058-11.296-11.296-11.296H265.4c-3.526 0-6.384 2.858-6.384 6.383v54.697C259.016 187.4 261.874 190.258 265.4 190.258zM264.092 197.523h23.593c6.563 0 11.883 5.32 11.883 11.883v21.057c0 32.231-7.746 63.991-22.585 92.603l-8.385 16.168c-2.447 4.718-9.581 2.978-9.581-2.337V202.598C259.016 199.795 261.288 197.523 264.092 197.523zM351.425 92.9l-15.916 18.076c-6.706 7.616-10.405 17.415-10.405 27.563v22.063c0 1.734 2.036 2.668 3.35 1.536l13.895-11.965c8.016-6.902 12.625-16.955 12.625-27.533v-28.4C354.974 92.371 352.66 91.497 351.425 92.9zM348.833 155.36l-15.766 14.607c-5.078 4.704-7.964 11.313-7.964 18.234v16.516c0 3.311 4.049 4.917 6.318 2.506l16.227-17.241c4.705-4.999 7.325-11.605 7.325-18.47v-13.469C354.974 154.851 351.173 153.191 348.833 155.36zM353.465 191.165l-12.614 13.48c-17.793 19.013-28.047 43.859-28.845 69.887l-.311 10.155c-.135 4.417 5.358 6.548 8.237 3.196l31.21-36.337c7.949-9.255 11.874-21.3 10.905-33.461l-1.962-24.605C359.82 190.16 355.74 188.733 353.465 191.165z" class="color9fabce svgShape"/><path fill="gray" d="M304.229,341.16l-30.358,43.147c-4.292,6.1-6.346,13.495-5.814,20.934l5.659,79.226
		c0.53,7.423,10.935,8.623,13.141,1.516l14.44-46.511l9.162-96.009C310.795,339.954,306.258,338.277,304.229,341.16z" class="colorff004f svgShape"/><path fill="#1677ff" d="M147.392 250.498l12.907 18.804c2.735 3.984 3.184 9.105 1.178 13.501-9.287 20.356-35.972 79.739-46.061 111.792-.825 2.62-4.671 2.217-4.906-.519-.718-8.367.187-22.196 7.811-42.231 9.993-26.262 18.857-49.496 22.992-60.328 1.633-4.277 2.467-8.811 2.467-13.389v-26.51C143.781 249.674 146.292 248.895 147.392 250.498zM361.331 250.498l-12.907 18.804c-2.735 3.984-3.184 9.105-1.178 13.501 9.287 20.356 35.972 79.739 46.061 111.792.824 2.62 4.671 2.217 4.906-.519.718-8.367-.187-22.196-7.811-42.231-9.993-26.262-18.857-49.496-22.992-60.328-1.633-4.277-2.467-8.811-2.467-13.389v-26.51C364.942 249.674 362.432 248.895 361.331 250.498zM192.729 486.212c1.942-30.942-.539-62.169-7.502-92.586l-14.175-61.915c-1.83-7.992-12.162-8.829-15.107-1.227-11.6 29.942-29.948 81.806-31.735 114.469-.398 7.278-.631 13.858-.721 19.861C133.925 471.205 157.016 482.662 192.729 486.212zM313.243 486.212c-1.942-30.942.539-62.169 7.502-92.586l14.175-61.915c1.83-7.992 12.162-8.829 15.107-1.227 11.6 29.942 29.948 81.806 31.735 114.469.398 7.278.631 13.858.721 19.861C372.048 471.205 348.956 482.662 313.243 486.212zM246.71 30.568v16.119c0 2.743-2.006 5.133-4.863 5.794l-20.888 4.832c-10.774 2.492-27.945 10.577-27.945 10.577-5.973 6.163-36.108-43.292-12.473-43.292h59.763C243.842 24.598 246.71 27.271 246.71 30.568zM258.77 30.568v16.119c0 2.743 2.006 5.133 4.863 5.794l20.888 4.832c10.774 2.492 27.945 10.577 27.945 10.577 5.973 6.163 37.243-43.292 12.473-43.292h-59.763C261.638 24.598 258.77 27.271 258.77 30.568z" class="color9fabce svgShape"/></svg>