<svg xmlns="http://www.w3.org/2000/svg" enable-background="new 0 0 512 512" version="1.0" viewBox="0 0 512 512"><path fill="#1b1b1b" d="M198.703 9.853c5.322.019 9.814 3.945 10.542 9.217 3.921 28.403 20.526 96.26 21.272 152.199.846 63.45-28.764 115.901-28.764 160.739 0 29.366 1.694 103.204 7.469 131.243 2.686 13.044.712 37.054-16.389 37.054-62.707 0-126.859-22.958-134.331-24.305-7.472-1.348-12.411-5.003-12.411-11.756v0c0-9.559 5.185-18.365 13.544-23.002l67.641-20.033c16.077-6.49 6.566-43.36 6.566-43.36-3.154-39.007-8.896-77.759-17.007-116.043-28.499-134.533-10.924-196.461.148-243.95 1.131-4.852 5.46-8.277 10.442-8.259L198.703 9.853zM378.548 9.595c4.982-.018 9.311 3.407 10.442 8.259 11.072 47.489 28.648 109.417.148 243.95-8.11 38.285-13.853 77.036-17.006 116.043 0 0-5.759 36.87 16.939 48.283l57.268 15.11c8.358 4.637 13.543 13.444 13.543 23.002v0c0 6.753-5.668 12.122-12.411 11.756 0 0-93.595 24.305-108.559 24.305-14.964 0-36.342-7.838-35.972-35.877 5.774-28.039 1.28-103.053 1.28-132.419 0-44.838-29.61-97.289-28.764-160.739.746-55.939 17.352-123.796 21.272-152.199.728-5.272 5.22-9.198 10.542-9.217L378.548 9.595z" class="color484f69 svgShape"/><path fill="#1677ff" d="M161.094,38.257c0,0-16.08,205.796,20.353,240.885c26.409,25.435,32.118-102.924,22.946-140.881
		C194.408,96.935,170.213-15.029,161.094,38.257z" class="colorff004f svgShape"/><path fill="#1677ff" d="M152.249 38.257c0 0-4.735 101.571 0 159.86 3.761 46.302 10.114 84.527-10.403 77.375s-40.129-97.084-29.462-151.831S150.06 1.03 152.249 38.257zM342.991 38.257c0 0 16.424 206.156-20.353 240.885-24.942 23.553-32.118-102.924-22.946-140.881C309.677 96.935 333.873-15.029 342.991 38.257z" class="colorff004f svgShape"/><path fill="#1677ff" d="M351.836,38.257c0,0,4.735,101.571,0,159.86c-3.761,46.302-10.758,84.527,9.759,77.375
		c20.517-7.152,40.773-97.084,30.106-151.831S354.026,1.03,351.836,38.257z" class="colorff004f svgShape"/></svg>