<svg xmlns="http://www.w3.org/2000/svg" enable-background="new 0 0 65 65" viewBox="0 0 65 65"><path fill="#1677ff" d="M16.7,44.8c-7.6-3.2-12.4-8-14.2-14.3C-1.1,18.1,8.2,4.5,8.6,4l3,2.1C11.5,6.2,2.9,18.8,6,29.5    c1.5,5.2,5.6,9.2,12.1,11.9L16.7,44.8z" class="color788d9a svgShape"/><circle cx="10.1" cy="5" r="4.5" fill="#585858" class="color445c6c svgShape"/><polygon fill="#585858" points="53.3 16.5 50 31 38.1 30.2 45.7 16.5" class="color445c6c svgShape"/><polygon fill="#1b1b1b" points="52.6 19.6 53.3 16.5 45.7 16.5 44 19.6" class="color324854 svgShape"/><path fill="#dbdde0" d="M6.4,58h51.8c0,0,14.9-24.5-13.6-29.4C22.5,24.8-4.3,49,6.4,58z" class="colordbdfe0 svgShape"/><path fill="#1677ff" d="M58,58H7c-3.6,0-6.5,2.9-6.5,6.5h64C64.5,60.9,61.6,58,58,58z" class="color788d9a svgShape"/><path fill="#949faf" d="M7,59.4h51c3.1,0,5.7,2.2,6.3,5.1h0.2c0-3.6-2.9-6.5-6.5-6.5H7c-3.6,0-6.5,2.9-6.5,6.5h0.2   C1.3,61.6,3.9,59.4,7,59.4z" class="color94a6af svgShape"/><path fill="#aeaeae" d="M55.5,9.5H42.1c-2.2,0-4,1.8-4,4c0,2.2,1.8,4,4,4h13.4c2.2,0,4-1.8,4-4C59.4,11.3,57.7,9.5,55.5,9.5z" class="colorf1786b svgShape"/><path fill="#8dbcff" d="M42.1,10.6h13.4c2,0,3.6,1.5,3.9,3.4c0-0.2,0.1-0.4,0.1-0.6c0-2.2-1.8-4-4-4H42.1c-2.2,0-4,1.8-4,4   c0,0.2,0,0.4,0.1,0.6C38.4,12.1,40.1,10.6,42.1,10.6z" class="colorff958d svgShape"/><circle cx="26.8" cy="45.6" r="7.5" fill="#1677ff" class="color788d9a svgShape"/><circle cx="26.8" cy="45.6" r="4.2" fill="#eff1f5" class="coloreff3f5 svgShape"/></svg>