<svg width="14" height="14" viewBox="0 0 14 14" fill="none" xmlns="http://www.w3.org/2000/svg">
<path d="M10.6533 3.36663L8.75999 1.47329C8.69802 1.41081 8.62428 1.36121 8.54304 1.32737C8.4618 1.29352 8.37467 1.2761 8.28666 1.2761C8.19865 1.2761 8.11151 1.29352 8.03027 1.32737C7.94903 1.36121 7.8753 1.41081 7.81332 1.47329C7.68916 1.5982 7.61946 1.76717 7.61946 1.94329C7.61946 2.11942 7.68916 2.28839 7.81332 2.41329L9.22666 3.82663L3.82666 9.22663L2.41332 7.81329C2.28842 7.68913 2.11945 7.61943 1.94332 7.61943C1.7672 7.61943 1.59823 7.68913 1.47332 7.81329C1.41084 7.87527 1.36124 7.949 1.3274 8.03024C1.29355 8.11148 1.27613 8.19862 1.27613 8.28663C1.27613 8.37463 1.29355 8.46177 1.3274 8.54301C1.36124 8.62425 1.41084 8.69798 1.47332 8.75996L3.34666 10.6333L5.21999 12.5066C5.28173 12.5696 5.35536 12.6197 5.43661 12.6541C5.51787 12.6884 5.60512 12.7063 5.69332 12.7066C5.82574 12.7074 5.95539 12.6687 6.06573 12.5955C6.17608 12.5223 6.26213 12.4179 6.31291 12.2956C6.36368 12.1733 6.37689 12.0387 6.35084 11.9088C6.3248 11.779 6.26068 11.6599 6.16666 11.5666L4.77332 10.1733L10.1733 4.77329L11.5867 6.18663C11.6488 6.24835 11.7225 6.29722 11.8036 6.33046C11.8846 6.36369 11.9714 6.38064 12.059 6.38033C12.1466 6.38002 12.2333 6.36246 12.3141 6.32865C12.3949 6.29485 12.4683 6.24545 12.53 6.18329C12.5917 6.12113 12.6406 6.04743 12.6738 5.96638C12.7071 5.88533 12.724 5.79853 12.7237 5.71094C12.7234 5.62334 12.7058 5.53666 12.672 5.45585C12.6382 5.37504 12.5888 5.30168 12.5267 5.23996L10.6533 3.36663ZM1.47332 10.64C1.34779 10.5144 1.17753 10.4439 0.999991 10.4439C0.822457 10.4439 0.652194 10.5144 0.526658 10.64C0.401122 10.7655 0.330597 10.9358 0.330597 11.1133C0.330597 11.2908 0.401122 11.4611 0.526658 11.5866L2.41332 13.4733C2.47562 13.5351 2.5495 13.584 2.63072 13.6171C2.71195 13.6503 2.79892 13.6671 2.88666 13.6666C2.9744 13.6671 3.06137 13.6503 3.1426 13.6171C3.22382 13.584 3.2977 13.5351 3.35999 13.4733C3.42248 13.4113 3.47207 13.3376 3.50592 13.2563C3.53977 13.1751 3.55719 13.088 3.55719 13C3.55719 12.912 3.53977 12.8248 3.50592 12.7436C3.47207 12.6623 3.42248 12.5886 3.35999 12.5266L1.47332 10.64ZM13.4733 2.41329L11.5867 0.526627C11.4611 0.401092 11.2909 0.330566 11.1133 0.330566C10.9358 0.330566 10.7655 0.401092 10.64 0.526627C10.5145 0.652163 10.4439 0.822426 10.4439 0.999961C10.4439 1.1775 10.5145 1.34776 10.64 1.47329L12.5267 3.35996C12.5886 3.42245 12.6624 3.47204 12.7436 3.50589C12.8248 3.53973 12.912 3.55716 13 3.55716C13.088 3.55716 13.1751 3.53973 13.2564 3.50589C13.3376 3.47204 13.4113 3.42245 13.4733 3.35996C13.5358 3.29799 13.5854 3.22425 13.6193 3.14301C13.6531 3.06177 13.6705 2.97464 13.6705 2.88663C13.6705 2.79862 13.6531 2.71148 13.6193 2.63024C13.5854 2.549 13.5358 2.47527 13.4733 2.41329Z" fill="white"/>
</svg>
