<svg xmlns="http://www.w3.org/2000/svg" enable-background="new 0 0 512 512" version="1.0" viewBox="0 0 512 512"><path fill="#1b1b1b" d="M482.904,414.749l-57.335-43.152c-19.729,20.594-46.2,12.927-46.2,12.927
			c15.253,3.39,37.567-18.925,37.567-18.925l22.474,4.328c9.185,1.295,17.836-4.644,19.928-13.68l0,0
			c0.566-2.83-1.123-5.624-3.892-6.438L416.1,338.239c-7.694-3.205-16.342-3.69-24.199-0.908c-6.69,2.368-15.752,2.768-26.301-0.347
			c-38.026-11.23-51.076-51.955-74.889-88.863c-30.409-47.133-64.232-50.163-64.232-50.163
			c-24.565-54.065-66.587-58.196-66.587-58.196s-13.724-53.066-42.902-85.662c-18.062-20.178-53.821-24.943-75.778-25.87
			c-10.177-0.43-18.647,7.736-18.647,17.922v415.076c0,13.307,14.627,21.428,25.922,14.392l10.575-6.588
			c11.027-6.869,18.563-18.154,20.681-30.973l10.98-66.439l-0.825-54.715c-0.231-15.315,6.496-29.698,17.756-40.082
			c12.226-11.276,18.94-40.56,18.94-40.56l31.517,25.507c0,0,8.921,31.537,44.2,58.465c26.085,19.911,81.772,34.922,107.182,43.469
			c9.266,3.117,16.6,10.282,19.927,19.475l3.554,9.818c0.744,2.056,1.74,4.012,2.964,5.825l54.44,78.714
			c4.325,6.403,12.255,8.96,19.301,6.729c2.173-0.688,3.122-3.241,1.942-5.191l-28.862-52.464l37.527,45.121
			c4.97,6.917,13.79,9.439,21.441,6.73c2.526-0.894,3.49-3.966,1.941-6.152l-38.061-58.787l38.549,37.551
			c6.437,6.345,16.136,7.29,23.546,2.956c2.516-1.471,2.812-5.002,0.62-6.922l-48.842-47.049l41.251,23.93
			c7.41,4.407,16.6,3.238,22.67-2.29C485.509,419.779,485.247,416.377,482.904,414.749z" class="color484f69 svgShape"/><path fill="#1677ff" d="M46.881 83.77c-17.132-8.933-12.541-34.79 6.607-37.376 2.192-.296 4.404-.428 6.623-.367 28.642.787 64.691 7.332 84.517 96.704 0 0-49.943-12.778-63.967-31.543C73.685 101.852 60.998 91.131 46.881 83.77zM101.378 154.546l10.979 26.65c0 0 38.974 60.24 81.782 71.551 6.226 1.645 11.874-4.132 10.127-10.33l-9.599-34.048c-2.198-7.796-6.293-14.925-11.92-20.751l-37.516-38.843c0 0-25.984-5.028-37.695-9.014h0C101.752 142.143 98.995 148.763 101.378 154.546z" class="color9fabce svgShape"/><path fill="#1677ff" d="M171.147 162.212c-1.989-.57-3.31 2.037-1.691 3.325 7.491 5.963 19.539 16.706 25.511 28.26 5.886 11.386 12.451 28.198 16.317 38.548.821 2.199 4.05 1.766 4.263-.571l1.057-11.629c.45-4.955-.387-9.942-2.47-14.461C208.382 193.207 194.48 168.899 171.147 162.212zM120.152 205.862l3.346 8.123c1.442 3.501 3.488 6.718 6.068 9.488 5.529 5.936 16.119 15.852 28.608 20.25 1.325.467 2.33-1.242 1.278-2.173-7.927-7.023-25.248-22.849-36.984-37.086C121.47 203.252 119.554 204.409 120.152 205.862z" class="color9fabce svgShape"/><path fill="gray" d="M231.129,215.409c-4.165-1.594-8.673,1.456-8.666,5.916c0.013,8.031,1.342,21.15,7.693,37.609
		c10.033,25.999,26.511,56.212,97.276,76.107c4.599,1.293,7.955-4.316,4.623-7.739c-9.389-9.644-22.176-24.614-32.691-43.557
		C281.367,251.323,271.341,230.794,231.129,215.409z" class="colorff004f svgShape"/><path fill="gray" d="M179.892,257.084c-1.931-1.147-4.254,0.669-3.551,2.802c2.76,8.378,8.338,21.251,18.721,31.766
		c16.919,17.134,78.281,43.138,92.03,48.971c13.749,5.833,38.25,7.283,38.33,5.833l0,0c0.2-3.618-2.334-6.814-5.906-7.428
		c-14.054-2.416-34.123-10.966-53.427-22.433c-32.357-19.22-36.66-51.119-63.042-53.431
		C191.155,262.12,184.078,259.57,179.892,257.084z" class="colorff004f svgShape"/><path fill="#1677ff" d="M116.415 232.104c-5.349 18.071-17.579 48.522-42.768 68.309-4.609 3.62-11.109-.995-9.23-6.546l5.997-17.72c1.673-4.944 4.356-9.486 7.879-13.338l31.513-34.455C112.602 225.295 117.592 228.13 116.415 232.104zM106.497 197.925c-4.911-9.093-12.177-24.241-13.607-36.578-2.2-18.98-31.683-54.463-54.217-58.82-.031-.006-.062-.012-.094-.018-5.442-1.029-10.44 3.297-10.44 8.836v114.508c0 4.577 3.45 8.417 8.001 8.906l2.842.305c9.887 1.061 19.742-2.867 26.595-10.663 7.299-8.304 19.385-17.812 36.888-18.697C106.109 205.519 108.306 201.275 106.497 197.925z" class="color9fabce svgShape"/></svg>