<svg xmlns="http://www.w3.org/2000/svg" enable-background="new 0 0 512 512" version="1.0" viewBox="0 0 512 512"><path fill="#1b1b1b" d="M377.637,10.998h-0.005H134.373c-2.145,0-4.2,0.861-5.704,2.39c-1.504,1.529-2.331,3.598-2.295,5.743
			l1.428,85.668c-2.813,5.314-10.695,21.029-18.735,44.541c-9.029,26.405-19.953,68.092-20.726,116.742
			c-1.026,64.644,11.911,139.871,19.641,184.818c3.298,19.178,5.903,34.325,5.903,39.679c0,4.407,3.564,7.984,7.971,8l89.552,0.323
			c0.01,0,0.019,0,0.029,0c2.846,0,5.478-1.512,6.911-3.971c14.403-24.71,25.815-61.877,33.918-110.468
			c1.344-8.061,2.592-16.452,3.735-25.084c1.143,8.633,2.391,17.023,3.735,25.084c8.103,48.591,19.515,85.758,33.918,110.468
			c1.434,2.459,4.066,3.971,6.911,3.971c0.01,0,0.019,0,0.029,0l89.552-0.323c4.407-0.016,7.971-3.593,7.971-8
			c0-5.354,2.605-20.502,5.903-39.679c3.84-22.33,9.1-52.913,13.147-85.223c4.822-38.493,6.946-71.07,6.493-99.595
			c-0.772-48.65-11.697-90.337-20.726-116.742c-8.04-23.512-15.922-39.227-18.735-44.541l1.424-85.463
			c0.005-0.112,0.007-0.225,0.007-0.338C385.635,14.579,382.055,10.998,377.637,10.998L377.637,10.998z" class="color484f69 svgShape"/><path fill="gray" d="M156.33,66.418c20.473-0.514,66.819,3.535,94.291,46.718v87.635c0,0-24.656,48.627-71.86,28.855
		c-39.569-16.574-35.763-119.51-33.497-152.373C145.679,71.236,150.475,66.565,156.33,66.418z" class="colorff004f svgShape"/><path fill="#1677ff" d="M215.226 243.813c6.696-2.688 15.225-6.397 21.764-10.207 2.976-1.734 6.643.683 6.204 4.099l-11.707 129.436c-.353 3.903-6.035 3.957-6.462.062-3.625-33.044-9.841-82.168-17.163-108.564C206.172 252.546 209.359 246.168 215.226 243.813zM195.683 253.04l25.288 138.893c2.229 12.245.922 24.872-3.768 36.4l-21.542 52.947c-2.35 5.776-10.82 4.788-11.77-1.375-6.681-43.335-19.448-144.075-8.933-226.351.844-6.605 7.586-10.736 13.871-8.536h0C192.39 246.264 195.008 249.327 195.683 253.04zM166.453 238.417c1.265 1.529 1.869 3.495 1.678 5.47-1.693 17.489-9.914 105.101-9.116 149.006.561 30.837-10.543 61.674-18.827 80.256-2.574 5.773-11.072 4.708-12.149-1.52-4.886-28.234-13.236-79.986-12.604-100.526.71-23.064 27.467-100.204 38.252-130.44C155.63 235.215 162.764 233.961 166.453 238.417L166.453 238.417zM127.219 163.333c1.149-2.664 4.977-2.503 5.87.257 5.248 16.233 16.862 53.502 16.163 63.338-.731 10.287-25.81 72.296-35.576 103.532-.968 3.097-5.488 2.633-5.8-.597C104.749 297.492 101.393 223.239 127.219 163.333z" class="color9fabce svgShape"/><path fill="gray" d="M353.788,66.418c-20.473-0.514-66.819,3.535-94.291,46.718v87.635c0,0,24.656,48.627,71.86,28.855
		c39.569-16.574,35.763-119.51,33.497-152.373C364.439,71.236,359.643,66.565,353.788,66.418z" class="colorff004f svgShape"/><path fill="#1677ff" d="M294.892 243.813c-6.696-2.688-15.225-6.397-21.764-10.207-2.976-1.734-6.643.683-6.204 4.099l11.707 129.436c.353 3.903 6.035 3.957 6.462.062 3.625-33.044 9.841-82.168 17.163-108.564C303.946 252.546 300.76 246.168 294.892 243.813zM314.435 253.04l-25.288 138.893c-2.229 12.245-.922 24.872 3.768 36.4l21.542 52.947c2.35 5.776 10.82 4.788 11.77-1.375 6.681-43.335 19.448-144.075 8.933-226.351-.844-6.605-7.586-10.736-13.871-8.536l0 0C317.728 246.264 315.111 249.327 314.435 253.04zM343.665 238.417c-1.265 1.529-1.869 3.495-1.678 5.47 1.693 17.489 9.914 105.101 9.116 149.006-.561 30.837 10.543 61.674 18.827 80.256 2.574 5.773 11.072 4.708 12.149-1.52 4.886-28.234 13.236-79.986 12.604-100.526-.71-23.064-27.467-100.204-38.252-130.44C354.488 235.215 347.354 233.961 343.665 238.417L343.665 238.417zM382.899 163.333c-1.149-2.664-4.977-2.503-5.87.257-5.248 16.233-16.862 53.502-16.163 63.338.731 10.287 25.81 72.296 35.576 103.532.968 3.097 5.488 2.633 5.8-.597C405.369 297.492 408.725 223.239 382.899 163.333zM172.562 46.926c.374 6.505 5.603 11.583 11.927 11.583 14.415 0 28.378 5.184 39.481 14.659l18.348 15.657c3.305 2.82 8.303.398 8.303-4.024V30.747h-78.989L172.562 46.926zM140.993 38.82l1.914 13.527c.527 3.724 3.864 6.392 7.613 6.087l11.097-.904c3.504-.286 6.836-3.098 6.513-6.599-.622-6.736-1.385-13.518-2.233-20.185h-25.684C140.365 33.444 140.614 36.138 140.993 38.82zM259.497 84.802c0 4.422 4.998 6.844 8.303 4.024l18.348-15.657c11.102-9.474 25.066-14.659 39.481-14.659h0c6.324 0 11.552-5.078 11.927-11.583l.93-16.179h-78.989V84.802zM341.989 50.932c-.323 3.501 3.009 6.313 6.513 6.599l11.097.904c3.749.305 7.086-2.363 7.613-6.087l1.914-13.527c.379-2.683.628-5.376.781-8.073h-25.685C343.374 37.414 342.611 44.195 341.989 50.932z" class="color9fabce svgShape"/></svg>