<svg xmlns="http://www.w3.org/2000/svg" enable-background="new 0 0 512 512" version="1.0" viewBox="0 0 512 512"><path fill="#1b1b1b" d="M300.111,37.462c-1.093,0-2.19,0.224-3.221,0.677l-19.979,8.789c-7.153,3.147-14.743,4.743-22.558,4.743
			c-8.195,0-16.121-1.747-23.557-5.193l-17.853-8.274c-1.071-0.496-2.219-0.742-3.363-0.742c-1.503,0-3,0.423-4.307,1.258
			c-2.301,1.47-3.694,4.012-3.694,6.742v22.553l-79.783,38.894c-6.267,2.078-54.194,19.141-68.246,58.949
			c-12.363,35.022-5.801,71.956-2.555,85.742c-10.916,8.808-35.98,34.384-37.773,84.578c-0.056,1.557,0.345,3.097,1.152,4.43
			l55.372,91.433c1.452,2.398,4.05,3.856,6.842,3.856c0.075,0,0.15-0.001,0.226-0.003c2.877-0.081,5.49-1.701,6.84-4.244
			c16.658-31.356,16.875-58.869,16.33-68.373l15.191-19.628c2.29,3.812,5.327,8.26,9.282,13.009
			c8.242,9.897,11.749,23.036,9.62,36.046l-8.755,53.504c-0.693,4.234,2.077,8.26,6.279,9.127l76.517,15.781
			c15.094,3.113,30.563,4.691,45.975,4.691c15.122,0,30.305-1.52,45.127-4.518l78.842-15.948c4.217-0.853,7.004-4.888,6.309-9.133
			l-8.755-53.504c-2.129-13.011,1.377-26.149,9.62-36.046c3.955-4.75,6.993-9.198,9.282-13.009l15.19,19.627
			c-0.577,10.026-0.31,40.08,19.211,73.545c1.435,2.46,4.068,3.969,6.91,3.969c0.037,0,0.075,0,0.112-0.001
			c2.885-0.04,5.525-1.631,6.908-4.163l52.646-96.326c0.689-1.262,1.026-2.686,0.975-4.122
			c-1.793-50.194-26.857-75.77-37.773-84.578c3.246-13.786,9.808-50.72-2.555-85.742c-14.053-39.809-61.979-56.871-68.246-58.949
			l-79.783-38.894V45.462c0-2.703-1.365-5.223-3.628-6.7C303.163,37.901,301.641,37.462,300.111,37.462L300.111,37.462z" class="color484f69 svgShape"/><path fill="gray" d="M219.302,60.413l10.936,16.321c2.096,3.128,3.712,6.64,4.779,10.388l13.565,47.628
		c0.155,0.544,0.234,1.112,0.234,1.684v0c0,5.303-5.946,7.463-8.618,3.132c-10.811-17.517-27.572-49.908-24.354-78.118
		C216.066,59.501,218.257,58.853,219.302,60.413z" class="colorff004f svgShape"/><path fill="#b1b1b1" d="M145.629,109.587l50.855-25.03c5.39-2.653,11.842,0.362,13.267,6.198
		c1.873,7.669,5.16,18.229,10.711,28.856c2.837,5.431-1.783,11.751-7.812,10.655l-65.805-11.965
		C142.451,117.502,141.621,111.559,145.629,109.587z" class="colorff8564 svgShape"/><path fill="#1677ff" d="M169.103,134.408c0,0-37.238-18.619-63.422-6.982S48.66,158.845,64.37,249.032
			c0,0,41.311-30.838,47.13-53.53S142.338,136.153,169.103,134.408z" class="color9fabce svgShape"/><path fill="#1677ff" d="M241.297 156.559c4.666 2.754 7.52 7.767 7.52 13.185v46.72c0 8.704-6.048 15.996-14.171 17.901-4.694 1.101-9.383 2.22-13.953 3.754l-49.851 16.732c-9.613 0-18.681-4.489-24.464-12.168-6.153-8.172-16.775-17.887-33.478-20.387-3.507-.525-5.224-4.54-3.125-7.399 5.659-7.711 14.206-20.645 16.854-31.613 4.073-16.874 36.075-45.966 58.185-47.712C201.129 134.283 228.22 148.841 241.297 156.559zM108.86 243.483v28.823c0 0-13.09 70.544-48.363 97.308-5.13 3.892-12.553.702-13.298-5.694l-4.094-35.137c-.937-8.045.134-16.197 3.117-23.727l19.893-50.205c0 0 22.11-14.546 31.42-22.692h0C103.79 232.159 108.86 237.229 108.86 243.483z" class="color9fabce svgShape"/><path fill="#1677ff" d="M47.27 277.147c1.622-1.284 3.836.622 2.83 2.43-4.655 8.367-11.702 22.889-12.824 35.847-1.105 12.77-.772 30.815-.404 41.857.078 2.346-3.072 3.176-4.159 1.095l-5.407-10.35c-2.304-4.41-3.429-9.341-3.224-14.312C24.647 319.988 28.243 292.218 47.27 277.147zM111.047 298.082v8.785c0 3.786-.666 7.54-1.997 11.085-2.851 7.595-8.865 20.797-18.739 29.621-1.047.936-2.627-.261-2.01-1.523 4.655-9.513 14.642-30.743 20.07-48.378C108.834 296.171 111.047 296.511 111.047 298.082zM248.816 250.095v36.119c0 2.743-2.006 5.133-4.863 5.794l-20.888 4.832c-10.774 2.492-27.945 10.577-27.945 10.577-5.972 6.163-36.108-43.292-12.473-43.292l59.763-20C245.948 244.125 248.816 246.798 248.816 250.095zM248.816 307.203v38.609c0 2.916-2.364 5.279-5.279 5.279h-34.61c-3.408 0-6.557-1.817-8.262-4.767l-4.026-6.963c-3.769-6.519-2.219-14.806 3.652-19.522 9.015-7.244 23.896-16.403 42.774-17.896C246.157 301.698 248.816 304.101 248.816 307.203zM242.433 427.896h-24.602c-6.239 0-11.296-5.058-11.296-11.296v-44.872c0-6.239 5.058-11.296 11.296-11.296h24.602c3.526 0 6.383 2.858 6.383 6.383v54.697C248.816 425.038 245.958 427.896 242.433 427.896zM156.407 330.539l15.916 18.076c6.706 7.616 10.405 17.415 10.405 27.563v22.063c0 1.734-2.036 2.668-3.35 1.536l-13.895-11.965c-8.016-6.902-12.625-16.955-12.625-27.533v-28.4C152.858 330.01 155.172 329.136 156.407 330.539zM158.999 392.998l15.766 14.607c5.078 4.704 7.964 11.313 7.964 18.234v16.516c0 3.311-4.049 4.917-6.318 2.506l-16.227-17.241c-4.705-4.999-7.325-11.605-7.325-18.47V395.68C152.858 392.49 156.659 390.83 158.999 392.998z" class="color9fabce svgShape"/><path fill="gray" d="M290.39,60.413l-10.936,16.321c-2.096,3.128-3.712,6.64-4.779,10.388l-13.565,47.628
		c-0.155,0.544-0.234,1.112-0.234,1.684v0c0,5.303,5.946,7.463,8.618,3.132c10.811-17.517,27.572-49.908,24.354-78.118
		C293.626,59.501,291.434,58.853,290.39,60.413z" class="colorff004f svgShape"/><path fill="#b1b1b1" d="M364.063,109.587l-50.855-25.03c-5.39-2.653-11.842,0.362-13.267,6.198
		c-1.873,7.669-5.16,18.229-10.711,28.856c-2.837,5.431,1.783,11.751,7.812,10.655l65.805-11.965
		C367.241,117.502,368.071,111.559,364.063,109.587z" class="colorff8564 svgShape"/><path fill="#1677ff" d="M340.589,134.408c0,0,37.238-18.619,63.422-6.982c26.183,11.637,57.021,31.42,41.311,121.607
			c0,0-41.311-30.838-47.13-53.53S367.354,136.153,340.589,134.408z" class="color9fabce svgShape"/><path fill="#1677ff" d="M268.395 156.559c-4.666 2.754-7.52 7.767-7.52 13.185v46.72c0 8.704 6.048 15.996 14.171 17.901 4.694 1.101 9.383 2.22 13.953 3.754l49.851 16.732c9.613 0 18.681-4.489 24.464-12.168 6.153-8.172 16.775-17.887 33.478-20.387 3.507-.525 5.224-4.54 3.125-7.399-5.659-7.711-14.206-20.645-16.854-31.613-4.073-16.874-36.075-45.966-58.185-47.712C308.562 134.283 281.472 148.841 268.395 156.559zM400.832 243.483v28.823c0 0 13.09 70.544 48.363 97.308 5.13 3.892 12.553.702 13.298-5.694l4.094-35.137c.937-8.045-.134-16.197-3.117-23.727l-19.893-50.205c0 0-22.11-14.546-31.42-22.692h0C405.902 232.159 400.832 237.229 400.832 243.483z" class="color9fabce svgShape"/><path fill="#1677ff" d="M462.422 277.147c-1.622-1.284-3.836.622-2.83 2.43 4.655 8.367 11.702 22.889 12.824 35.847 1.105 12.77.772 30.815.404 41.857-.078 2.346 3.073 3.176 4.159 1.095l5.407-10.35c2.304-4.41 3.429-9.341 3.224-14.312C485.044 319.988 481.449 292.218 462.422 277.147zM398.645 298.082v8.785c0 3.786.666 7.54 1.997 11.085 2.851 7.595 8.865 20.797 18.739 29.621 1.047.936 2.627-.261 2.01-1.523-4.655-9.513-14.642-30.743-20.07-48.378C400.857 296.171 398.645 296.511 398.645 298.082zM260.876 250.095v36.119c0 2.743 2.006 5.133 4.863 5.794l20.888 4.832c10.774 2.492 27.945 10.577 27.945 10.577 5.973 6.163 37.243-43.292 12.473-43.292l-59.763-20C263.744 244.125 260.876 246.798 260.876 250.095zM260.876 307.203v38.609c0 2.916 2.364 5.279 5.279 5.279h34.61c3.408 0 6.557-1.817 8.262-4.767l4.026-6.963c3.769-6.519 2.219-14.806-3.652-19.522-9.015-7.244-23.896-16.403-42.774-17.896C263.535 301.698 260.876 304.101 260.876 307.203zM267.259 427.896h24.602c6.239 0 11.296-5.058 11.296-11.296v-44.872c0-6.239-5.058-11.296-11.296-11.296h-24.602c-3.526 0-6.383 2.858-6.383 6.383v54.697C260.876 425.038 263.733 427.896 267.259 427.896zM353.284 330.539l-15.916 18.076c-6.706 7.616-10.405 17.415-10.405 27.563v22.063c0 1.734 2.036 2.668 3.35 1.536l13.895-11.965c8.016-6.902 12.625-16.955 12.625-27.533v-28.4C356.833 330.01 354.519 329.136 353.284 330.539zM350.692 392.998l-15.766 14.607c-5.078 4.704-7.964 11.313-7.964 18.234v16.516c0 3.311 4.049 4.917 6.318 2.506l16.227-17.241c4.705-4.999 7.325-11.605 7.325-18.47V395.68C356.833 392.49 353.033 390.83 350.692 392.998z" class="color9fabce svgShape"/></svg>