<svg xmlns="http://www.w3.org/2000/svg" enable-background="new 0 0 512 512" version="1.0" viewBox="0 0 512 512"><path fill="#1b1b1b" d="M300.568,37.462c-1.093,0-2.19,0.224-3.221,0.677l-19.979,8.789c-7.153,3.147-14.743,4.743-22.558,4.743
			c-8.195,0-16.121-1.747-23.556-5.193l-17.853-8.274c-1.071-0.496-2.219-0.742-3.363-0.742c-1.503,0-3,0.423-4.307,1.258
			c-2.301,1.47-3.694,4.012-3.694,6.742v22.553l-79.783,38.894c-6.267,2.078-54.193,19.141-68.246,58.949
			c-12.363,35.022-5.801,71.956-2.555,85.742c-10.916,8.808-35.98,34.384-37.773,84.578c-0.056,1.557,0.345,3.097,1.152,4.43
			l55.372,91.433c1.452,2.398,4.05,3.856,6.842,3.856c0.075,0,0.15-0.001,0.225-0.003c2.878-0.081,5.49-1.701,6.84-4.244
			c16.658-31.356,16.875-58.869,16.33-68.373l15.191-19.628c2.289,3.812,5.327,8.26,9.282,13.009
			c8.243,9.897,11.749,23.036,9.62,36.046l-8.755,53.504c-0.693,4.234,2.077,8.26,6.279,9.127l76.517,15.781
			c15.094,3.113,30.562,4.691,45.975,4.691c15.122,0,30.305-1.52,45.127-4.518l78.842-15.948c4.217-0.853,7.004-4.888,6.309-9.133
			l-8.755-53.504c-2.129-13.011,1.377-26.149,9.62-36.046c3.955-4.75,6.993-9.198,9.282-13.009l15.19,19.627
			c-0.577,10.026-0.31,40.08,19.211,73.545c1.435,2.46,4.068,3.969,6.91,3.969c0.037,0,0.075,0,0.112-0.001
			c2.885-0.04,5.525-1.631,6.908-4.163l52.646-96.326c0.69-1.262,1.026-2.686,0.975-4.122c-1.793-50.194-26.857-75.77-37.773-84.578
			c3.246-13.786,9.808-50.72-2.555-85.742c-14.053-39.809-61.979-56.871-68.246-58.949l-79.783-38.894V45.462
			c0-2.703-1.365-5.223-3.628-6.7C303.62,37.901,302.098,37.462,300.568,37.462L300.568,37.462z" class="color484f69 svgShape"/><path fill="#1677ff" d="M220.32 60.413l12.526 16.321c2.4 3.128 4.251 6.64 5.474 10.388l15.536 47.628c.177.544.268 1.112.268 1.684v0c0 5.303-6.81 7.463-9.871 3.132-12.382-17.517-31.578-49.908-27.893-78.118C216.614 59.501 219.124 58.853 220.32 60.413zM146.086 109.587l50.855-25.03c5.39-2.653 11.842.362 13.267 6.198 1.873 7.669 5.16 18.229 10.711 28.856 2.837 5.431-1.783 11.751-7.812 10.655l-65.805-11.965C142.908 117.502 142.078 111.559 146.086 109.587zM169.56 134.408c0 0-37.238-18.619-63.422-6.982s-57.021 31.42-41.311 121.607c0 0 41.311-30.838 47.13-53.53S142.795 136.153 169.56 134.408z" class="color9fabce svgShape"/><path fill="gray" d="M241.754,156.559c4.666,2.754,7.52,7.767,7.52,13.185v46.72c0,8.704-6.048,15.996-14.171,17.901
		c-4.694,1.101-9.383,2.22-13.953,3.754l-49.851,16.732c-9.613,0-18.681-4.489-24.464-12.168
		c-6.153-8.172-16.775-17.887-33.478-20.387c-3.507-0.525-5.224-4.54-3.125-7.399c5.659-7.711,14.206-20.645,16.854-31.613
		c4.073-16.874,36.075-45.966,58.185-47.712C201.586,134.283,228.677,148.841,241.754,156.559z" class="colorff004f svgShape"/><path fill="#1677ff" d="M109.317,243.483v28.823c0,0-13.09,70.544-48.363,97.308c-5.13,3.892-12.553,0.702-13.298-5.694
			l-4.094-35.137c-0.937-8.045,0.134-16.197,3.117-23.727l19.893-50.205c0,0,22.11-14.546,31.42-22.692h0
			C104.247,232.159,109.317,237.229,109.317,243.483z" class="color9fabce svgShape"/><path fill="#1677ff" d="M47.727 277.147c1.622-1.284 3.836.622 2.83 2.43-4.655 8.367-11.702 22.889-12.824 35.847-1.105 12.77-.772 30.815-.404 41.857.078 2.346-3.072 3.176-4.159 1.095l-5.407-10.35c-2.304-4.41-3.429-9.341-3.224-14.312C25.104 319.988 28.7 292.218 47.727 277.147zM111.504 298.082v8.785c0 3.786-.666 7.54-1.997 11.085-2.851 7.595-8.865 20.797-18.739 29.621-1.047.936-2.627-.261-2.01-1.523 4.655-9.513 14.642-30.743 20.07-48.378C109.291 296.171 111.504 296.511 111.504 298.082zM249.273 307.203v38.609c0 2.916-2.364 5.279-5.279 5.279h-34.61c-3.408 0-6.557-1.817-8.262-4.767l-4.026-6.963c-3.769-6.519-2.219-14.806 3.652-19.522 9.015-7.244 23.896-16.403 42.774-17.896C246.614 301.698 249.273 304.101 249.273 307.203zM242.89 427.896h-24.602c-6.239 0-11.296-5.058-11.296-11.296v-44.872c0-6.239 5.058-11.296 11.296-11.296h24.602c3.526 0 6.383 2.858 6.383 6.383v54.697C249.273 425.038 246.415 427.896 242.89 427.896zM156.864 330.539l15.916 18.076c6.706 7.616 10.405 17.415 10.405 27.563v22.063c0 1.734-2.036 2.668-3.35 1.536l-13.895-11.965c-8.016-6.902-12.625-16.955-12.625-27.533v-28.4C153.315 330.01 155.629 329.136 156.864 330.539zM159.456 392.998l15.766 14.607c5.078 4.704 7.964 11.313 7.964 18.234v16.516c0 3.311-4.049 4.917-6.318 2.506L160.64 427.62c-4.705-4.999-7.325-11.605-7.325-18.47V395.68C153.315 392.49 157.116 390.83 159.456 392.998zM290.285 60.413L277.76 76.734c-2.4 3.128-4.251 6.64-5.474 10.388L256.75 134.75c-.177.544-.268 1.112-.268 1.684v0c0 5.303 6.81 7.463 9.871 3.132 12.382-17.517 31.578-49.908 27.893-78.118C293.992 59.501 291.482 58.853 290.285 60.413zM364.52 109.587l-50.855-25.03c-5.39-2.653-11.842.362-13.267 6.198-1.873 7.669-5.16 18.229-10.711 28.856-2.837 5.431 1.783 11.751 7.812 10.655l65.805-11.965C367.698 117.502 368.528 111.559 364.52 109.587zM341.046 134.408c0 0 37.238-18.619 63.422-6.982 26.183 11.637 57.021 31.42 41.311 121.607 0 0-41.311-30.838-47.13-53.53S367.811 136.153 341.046 134.408z" class="color9fabce svgShape"/><path fill="gray" d="M268.852,156.559c-4.666,2.754-7.52,7.767-7.52,13.185v46.72c0,8.704,6.048,15.996,14.171,17.901
		c4.694,1.101,9.383,2.22,13.953,3.754l49.851,16.732c9.613,0,18.681-4.489,24.464-12.168c6.153-8.172,16.775-17.887,33.478-20.387
		c3.507-0.525,5.224-4.54,3.125-7.399c-5.659-7.711-14.206-20.645-16.854-31.613c-4.073-16.874-36.075-45.966-58.185-47.712
		C309.019,134.283,281.929,148.841,268.852,156.559z" class="colorff004f svgShape"/><path fill="#1677ff" d="M401.289,243.483v28.823c0,0,13.09,70.544,48.363,97.308c5.13,3.892,12.553,0.702,13.298-5.694
			l4.094-35.137c0.937-8.045-0.134-16.197-3.117-23.727l-19.893-50.205c0,0-22.11-14.546-31.42-22.692h0
			C406.359,232.159,401.289,237.229,401.289,243.483z" class="color9fabce svgShape"/><path fill="#1677ff" d="M462.879 277.147c-1.622-1.284-3.836.622-2.83 2.43 4.655 8.367 11.702 22.889 12.824 35.847 1.105 12.77.772 30.815.404 41.857-.078 2.346 3.073 3.176 4.159 1.095l5.407-10.35c2.304-4.41 3.429-9.341 3.224-14.312C485.501 319.988 481.906 292.218 462.879 277.147zM399.102 298.082v8.785c0 3.786.666 7.54 1.997 11.085 2.851 7.595 8.865 20.797 18.739 29.621 1.047.936 2.627-.261 2.01-1.523-4.655-9.513-14.642-30.743-20.07-48.378C401.314 296.171 399.102 296.511 399.102 298.082zM261.333 307.203v38.609c0 2.916 2.364 5.279 5.279 5.279h34.61c3.408 0 6.557-1.817 8.262-4.767l4.026-6.963c3.769-6.519 2.219-14.806-3.652-19.522-9.015-7.244-23.896-16.403-42.774-17.896C263.992 301.698 261.333 304.101 261.333 307.203zM267.716 427.896h24.602c6.239 0 11.296-5.058 11.296-11.296v-44.872c0-6.239-5.058-11.296-11.296-11.296h-24.602c-3.526 0-6.383 2.858-6.383 6.383v54.697C261.333 425.038 264.19 427.896 267.716 427.896zM353.741 330.539l-15.916 18.076c-6.706 7.616-10.405 17.415-10.405 27.563v22.063c0 1.734 2.036 2.668 3.35 1.536l13.895-11.965c8.016-6.902 12.625-16.955 12.625-27.533v-28.4C357.29 330.01 354.976 329.136 353.741 330.539zM351.149 392.998l-15.766 14.607c-5.078 4.704-7.964 11.313-7.964 18.234v16.516c0 3.311 4.049 4.917 6.318 2.506l16.227-17.241c4.705-4.999 7.325-11.605 7.325-18.47V395.68C357.29 392.49 353.49 390.83 351.149 392.998zM249.027 250.095v36.119c0 2.743-2.006 5.133-4.863 5.794l-20.888 4.832c-10.774 2.492-27.945 10.577-27.945 10.577-5.973 6.163-36.108-43.292-12.473-43.292l59.763-20C246.158 244.125 249.027 246.798 249.027 250.095zM261.086 250.095v36.119c0 2.743 2.006 5.133 4.863 5.794l20.888 4.832c10.774 2.492 27.945 10.577 27.945 10.577 5.973 6.163 37.244-43.292 12.473-43.292l-59.763-20C263.955 244.125 261.086 246.798 261.086 250.095z" class="color9fabce svgShape"/></svg>