<svg xmlns="http://www.w3.org/2000/svg" enable-background="new 0 0 512 512" version="1.0" viewBox="0 0 512 512"><path fill="#1b1b1b" d="M376.479,9.828h-0.005H133.216c-2.142,0-4.195,0.859-5.698,2.385c-1.504,1.526-2.332,3.591-2.301,5.732
			l1.432,98.017c-2.809,5.306-10.695,21.025-18.739,44.549c-9.029,26.405-19.953,68.092-20.725,116.742
			c-1.026,64.636,11.909,135.002,19.637,177.044c3.3,17.953,5.907,32.133,5.907,37.453c0,4.407,3.564,7.984,7.971,8l89.552,0.323
			c0.01,0,0.019,0,0.029,0c2.846,0,5.478-1.512,6.911-3.971c14.433-24.761,25.841-60.735,33.908-106.922
			c1.403-8.031,2.645-16.022,3.746-23.903c1.1,7.88,2.343,15.871,3.746,23.903c8.067,46.187,19.475,82.161,33.908,106.922
			c1.434,2.459,4.066,3.971,6.911,3.971c0.01,0,0.019,0,0.029,0l89.552-0.323c4.407-0.016,7.971-3.593,7.971-8
			c0-5.319,2.607-19.5,5.907-37.453c3.841-20.895,9.101-49.51,13.147-80.249c4.819-36.614,6.942-68.276,6.49-96.795
			c-0.772-48.65-11.697-90.337-20.725-116.742c-8.044-23.524-15.93-39.243-18.739-44.549l1.429-97.811
			c0.004-0.107,0.006-0.214,0.006-0.323C384.477,13.409,380.897,9.828,376.479,9.828L376.479,9.828z" class="color484f69 svgShape"/><path fill="#1677ff" d="M243.74 17.828h-23.593c-6.563 0-11.883 5.32-11.883 11.883v21.057c0 32.231 7.746 63.991 22.585 92.603l8.385 16.168c2.447 4.718 9.581 2.978 9.581-2.337V22.903C248.815 20.1 246.543 17.828 243.74 17.828zM165.168 23.012l1.813 1.937c17.793 19.013 28.047 43.859 28.845 69.887l.311 10.155c.135 4.417-5.358 6.548-8.237 3.196l-31.21-36.337c-7.949-9.255-11.874-21.3-10.905-33.461l.705-8.846C147.237 20.177 158.749 16.152 165.168 23.012zM203.602 161.465l30.358 43.147c4.292 6.1 6.346 13.495 5.814 20.934l-7.644 107.016c-.117 1.635-2.409 1.9-2.895.334l-22.701-73.119-9.162-96.009C197.036 160.259 201.573 158.582 203.602 161.465z" class="color9fabce svgShape"/><path fill="#b1b1b1" d="M111.775 227.313c.834-2.989 5.265-2.218 5.023.876-2.311 29.489-4.512 87.4 9.01 126.719 7.297 21.218 12.299 33.466 15.689 40.51 4.088 8.495 5.629 17.985 4.493 27.345l-1.314 10.83c-.869 7.161-10.098 9.417-14.227 3.502-11.26-16.129-26.466-48.497-27.797-106.648C101.422 276.757 106.903 244.782 111.775 227.313zM207.5 295.538l3.863 11.82c10.755 32.907 14.508 67.699 11.019 102.143l-3.48 34.347c-1.755 17.322-19.11 28.556-35.632 23.064l0 0c-12.723-4.229-20.465-17.099-18.239-30.321l1.203-7.145c2.231-13.25 7.491-25.866 15.71-36.494 8.879-11.482 20.06-37.631 21.247-96.779C203.241 293.689 206.728 293.177 207.5 295.538z" class="colorff8564 svgShape"/><path fill="#1677ff" d="M265.95 17.828h23.593c6.563 0 11.883 5.32 11.883 11.883v21.057c0 32.231-7.746 63.991-22.585 92.603l-8.385 16.168c-2.447 4.718-9.581 2.978-9.581-2.337V22.903C260.874 20.1 263.147 17.828 265.95 17.828zM344.521 23.012l-1.813 1.937c-17.793 19.013-28.047 43.859-28.845 69.887l-.311 10.155c-.135 4.417 5.358 6.548 8.237 3.196L353 71.85c7.949-9.255 11.874-21.3 10.905-33.461l-.705-8.846C362.453 20.177 350.941 16.152 344.521 23.012zM306.088 161.465l-30.358 43.147c-4.292 6.1-6.346 13.495-5.814 20.934l7.644 107.016c.117 1.635 2.409 1.9 2.895.334l22.701-73.119 9.162-96.009C312.653 160.259 308.116 158.582 306.088 161.465z" class="color9fabce svgShape"/><path fill="#b1b1b1" d="M403.623 228.957c-.709-3.021-5.169-2.434-5.055.667 1.089 29.559.893 87.512-14.244 126.238-8.168 20.898-13.673 32.929-17.352 39.826-4.436 8.319-6.368 17.737-5.62 27.135l.865 10.875c.572 7.191 9.7 9.827 14.07 4.088 11.917-15.65 28.449-47.361 32.185-105.407C411.921 278.787 407.768 246.612 403.623 228.957zM302.19 295.538l-3.863 11.82c-10.755 32.907-14.508 67.699-11.019 102.143l3.48 34.347c1.755 17.322 19.11 28.556 35.632 23.064l0 0c12.723-4.229 20.465-17.099 18.239-30.321l-1.203-7.145c-2.231-13.25-7.491-25.866-15.71-36.494-8.879-11.482-20.06-37.631-21.247-96.779C306.449 293.689 302.961 293.177 302.19 295.538z" class="colorff8564 svgShape"/><path fill="#1677ff" d="M149.251 70.803l12.907 18.804c2.735 3.984 3.184 9.105 1.178 13.501-9.287 20.356-35.972 79.739-46.061 111.792-.825 2.62-4.671 2.217-4.906-.519-.718-8.367.187-22.196 7.811-42.231 9.993-26.262 18.857-49.496 22.992-60.328 1.633-4.277 2.467-8.811 2.467-13.389v-26.51C145.64 69.979 148.15 69.2 149.251 70.803zM363.19 70.803l-12.907 18.804c-2.735 3.984-3.184 9.105-1.178 13.501 9.287 20.356 35.972 79.739 46.061 111.792.825 2.62 4.671 2.217 4.906-.519.718-8.367-.187-22.196-7.811-42.231-9.993-26.262-18.857-49.496-22.992-60.328-1.633-4.277-2.467-8.811-2.467-13.389v-26.51C366.801 69.979 364.29 69.2 363.19 70.803z" class="color9fabce svgShape"/><path fill="gray" d="M330.947 373.267l-1.009-3.26c-16.772-54.182-18.937-112.302-6.246-167.733l14.175-61.915c1.83-7.992 12.162-8.829 15.107-1.227 11.6 29.942 29.948 81.806 31.735 114.469 4.075 74.495-8.975 76.749-18.464 118.181C361.863 390.911 336.735 391.965 330.947 373.267zM179.834 373.267l1.009-3.26c16.773-54.182 18.937-112.302 6.246-167.733l-14.175-61.915c-1.83-7.992-12.162-8.829-15.107-1.227-11.6 29.942-29.948 81.806-31.735 114.469-4.075 74.495 8.975 76.749 18.464 118.181C148.918 390.911 174.046 391.965 179.834 373.267z" class="colorff004f svgShape"/></svg>