<svg xmlns="http://www.w3.org/2000/svg" enable-background="new 0 0 512 512" version="1.0" viewBox="0 0 512 512"><path fill="#1b1b1b" d="M384.817,4.612c-0.429,0-0.858,0.034-1.284,0.104L306.935,17.17c-17.194,2.796-34.744,4.213-52.163,4.213
			c-17.419,0-34.969-1.418-52.163-4.213L126.01,4.715c-0.426-0.069-0.855-0.104-1.284-0.104c-0.811,0-1.62,0.123-2.398,0.368
			c-2.203,0.692-54.126,17.43-68.852,59.146c-12.363,35.022-5.801,71.956-2.555,85.742c-10.916,8.808-35.98,34.384-37.773,84.578
			c-0.051,1.437,0.285,2.861,0.975,4.122l52.646,96.326c1.384,2.532,4.023,4.122,6.908,4.163c0.037,0.001,0.075,0.001,0.112,0.001
			c2.843,0,5.475-1.509,6.91-3.969c19.521-33.465,19.789-63.519,19.211-73.545l15.19-19.627c2.29,3.812,5.327,8.26,9.282,13.009
			c8.242,9.897,11.749,23.036,9.62,36.046l-8.755,53.505c-0.078,0.475-0.112,0.956-0.104,1.436l1.463,80.921
			c0.027,1.491,0.47,2.944,1.279,4.196c0.487,0.754,12.166,18.666,33.232,36.696c12.433,10.641,25.595,19.136,39.12,25.247
			c17.086,7.72,34.777,11.635,52.583,11.635c17.78,0,35.654-3.904,53.125-11.604c13.818-6.09,27.406-14.555,40.388-25.16
			c21.999-17.971,34.625-35.809,35.152-36.56c0.917-1.306,1.421-2.856,1.45-4.451l1.463-80.921c0.009-0.481-0.026-0.962-0.104-1.436
			l-8.755-53.505c-2.129-13.011,1.377-26.149,9.62-36.046c3.956-4.75,6.993-9.198,9.283-13.009l15.19,19.627
			c-0.577,10.026-0.31,40.081,19.211,73.545c1.435,2.46,4.068,3.969,6.91,3.969c0.037,0,0.074,0,0.112-0.001
			c2.885-0.04,5.525-1.631,6.908-4.163l52.646-96.326c0.689-1.261,1.026-2.685,0.975-4.122
			c-1.792-50.194-26.857-75.77-37.773-84.578c3.246-13.786,9.808-50.72-2.555-85.742C441.341,22.41,389.418,5.672,387.215,4.979
			C386.437,4.735,385.628,4.612,384.817,4.612L384.817,4.612z" class="color484f69 svgShape"/><path fill="#1677ff" d="M169.029,32.674c0,0-37.238-18.619-63.422-6.982s-57.021,31.42-41.311,121.607
			c0,0,41.311-30.838,47.13-53.53C117.244,71.076,142.264,34.419,169.029,32.674z" class="color9fabce svgShape"/><path fill="#1677ff" d="M241.223 54.825c4.666 2.754 7.52 7.767 7.52 13.185v46.72c0 8.704-6.048 15.996-14.171 17.901-4.693 1.101-9.383 2.22-13.953 3.754l-49.851 16.732c-9.613 0-18.681-4.489-24.464-12.168-6.153-8.172-16.775-17.888-33.478-20.387-3.507-.525-5.224-4.54-3.125-7.399 5.659-7.711 14.206-20.645 16.854-31.613 4.073-16.874 36.075-45.966 58.185-47.712C201.055 32.549 228.146 47.107 241.223 54.825zM108.786 141.749v28.823c0 0-13.09 70.544-48.363 97.308-5.13 3.892-12.553.702-13.298-5.694l-4.094-35.137c-.937-8.045.134-16.197 3.117-23.727l19.893-50.205c0 0 22.11-14.546 31.42-22.692h0C103.716 130.425 108.786 135.495 108.786 141.749z" class="color9fabce svgShape"/><path fill="#1677ff" d="M47.196 175.413c1.622-1.285 3.836.622 2.83 2.43-4.655 8.367-11.702 22.889-12.824 35.847-1.105 12.77-.772 30.815-.404 41.857.078 2.346-3.072 3.176-4.159 1.095l-5.407-10.35c-2.304-4.41-3.429-9.341-3.224-14.312C24.574 218.254 28.169 190.484 47.196 175.413zM110.973 196.348v8.785c0 3.786-.666 7.54-1.997 11.084-2.851 7.595-8.865 20.797-18.739 29.621-1.047.936-2.627-.261-2.01-1.523 4.655-9.513 14.642-30.743 20.07-48.378C108.76 194.437 110.973 194.777 110.973 196.348z" class="color9fabce svgShape"/><path fill="#b1b1b1" d="M248.742 205.469v38.609c0 2.916-2.364 5.279-5.279 5.279h-34.61c-3.408 0-6.557-1.817-8.262-4.767l-4.026-6.963c-3.769-6.519-2.219-14.806 3.652-19.522 9.015-7.244 23.896-16.403 42.774-17.896C246.083 199.964 248.742 202.367 248.742 205.469zM242.359 326.162h-24.602c-6.239 0-11.296-5.058-11.296-11.296v-44.872c0-6.239 5.058-11.296 11.296-11.296h24.602c3.526 0 6.383 2.858 6.383 6.383v54.697C248.742 323.304 245.884 326.162 242.359 326.162zM243.667 333.428h-23.593c-6.563 0-11.883 5.32-11.883 11.883v21.057c0 32.231 7.746 63.991 22.585 92.603l8.385 16.168c2.447 4.718 9.581 2.978 9.581-2.337V338.503C248.742 335.7 246.47 333.428 243.667 333.428z" class="colorff8564 svgShape"/><path fill="gray" d="M156.333 228.805l15.916 18.076c6.706 7.616 10.405 17.415 10.405 27.563v22.063c0 1.734-2.036 2.668-3.35 1.536l-13.895-11.965c-8.016-6.902-12.625-16.955-12.625-27.533v-28.4C152.784 228.276 155.098 227.402 156.333 228.805zM158.925 291.264l15.766 14.607c5.078 4.704 7.964 11.313 7.964 18.234v16.516c0 3.311-4.049 4.917-6.318 2.506l-16.227-17.241c-4.705-4.999-7.325-11.605-7.325-18.47v-13.469C152.784 290.756 156.585 289.096 158.925 291.264zM154.294 332.07l12.614 13.48c17.793 19.013 28.047 43.859 28.845 69.887l.311 10.155c.135 4.417-5.358 6.548-8.237 3.196l-31.21-36.337c-7.949-9.255-11.874-21.3-10.905-33.461l1.962-24.605C147.938 331.065 152.018 329.638 154.294 332.07z" class="colorff004f svgShape"/><path fill="#1677ff" d="M340.515,32.674c0,0,37.238-18.619,63.422-6.982c26.183,11.637,57.021,31.42,41.311,121.607
			c0,0-41.311-30.838-47.13-53.53C392.3,71.076,367.28,34.419,340.515,32.674z" class="color9fabce svgShape"/><path fill="#1677ff" d="M268.321 54.825c-4.666 2.754-7.52 7.767-7.52 13.185v46.72c0 8.704 6.048 15.996 14.171 17.901 4.694 1.101 9.383 2.22 13.953 3.754l49.851 16.732c9.613 0 18.681-4.489 24.464-12.168 6.153-8.172 16.775-17.888 33.478-20.387 3.507-.525 5.224-4.54 3.125-7.399-5.659-7.711-14.206-20.645-16.854-31.613-4.073-16.874-36.075-45.966-58.185-47.712C308.488 32.549 281.398 47.107 268.321 54.825zM400.758 141.749v28.823c0 0 13.09 70.544 48.363 97.308 5.13 3.892 12.553.702 13.298-5.694l4.094-35.137c.937-8.045-.134-16.197-3.117-23.727l-19.893-50.205c0 0-22.11-14.546-31.42-22.692l0 0C405.828 130.425 400.758 135.495 400.758 141.749z" class="color9fabce svgShape"/><path fill="#1677ff" d="M462.348 175.413c-1.622-1.285-3.836.622-2.83 2.43 4.655 8.367 11.702 22.889 12.824 35.847 1.105 12.77.772 30.815.404 41.857-.078 2.346 3.073 3.176 4.159 1.095l5.407-10.35c2.304-4.41 3.429-9.341 3.224-14.312C484.97 218.254 481.375 190.484 462.348 175.413zM398.571 196.348v8.785c0 3.786.666 7.54 1.997 11.084 2.851 7.595 8.865 20.797 18.739 29.621 1.048.936 2.627-.261 2.01-1.523-4.655-9.513-14.642-30.743-20.07-48.378C400.783 194.437 398.571 194.777 398.571 196.348z" class="color9fabce svgShape"/><path fill="#b1b1b1" d="M260.802 205.469v38.609c0 2.916 2.364 5.279 5.279 5.279h34.61c3.408 0 6.557-1.817 8.262-4.767l4.026-6.963c3.769-6.519 2.219-14.806-3.652-19.522-9.015-7.244-23.896-16.403-42.774-17.896C263.461 199.964 260.802 202.367 260.802 205.469zM267.185 326.162h24.602c6.239 0 11.296-5.058 11.296-11.296v-44.872c0-6.239-5.058-11.296-11.296-11.296h-24.602c-3.526 0-6.383 2.858-6.383 6.383v54.697C260.802 323.304 263.66 326.162 267.185 326.162zM265.877 333.428h23.593c6.563 0 11.883 5.32 11.883 11.883v21.057c0 32.231-7.746 63.991-22.585 92.603l-8.385 16.168c-2.447 4.718-9.581 2.978-9.581-2.337V338.503C260.802 335.7 263.074 333.428 265.877 333.428z" class="colorff8564 svgShape"/><path fill="gray" d="M353.21 228.805l-15.916 18.076c-6.706 7.616-10.405 17.415-10.405 27.563v22.063c0 1.734 2.036 2.668 3.35 1.536l13.895-11.965c8.016-6.902 12.625-16.955 12.625-27.533v-28.4C356.759 228.276 354.445 227.402 353.21 228.805zM350.619 291.264l-15.766 14.607c-5.078 4.704-7.964 11.313-7.964 18.234v16.516c0 3.311 4.049 4.917 6.318 2.506l16.227-17.241c4.705-4.999 7.325-11.605 7.325-18.47v-13.469C356.759 290.756 352.959 289.096 350.619 291.264zM355.25 332.07l-12.614 13.48c-17.793 19.013-28.047 43.859-28.845 69.887l-.311 10.155c-.135 4.417 5.358 6.548 8.237 3.196l31.21-36.337c7.949-9.255 11.874-21.3 10.905-33.461l-1.962-24.605C361.606 331.065 357.525 329.638 355.25 332.07z" class="colorff004f svgShape"/><path fill="#b1b1b1" d="M248.496 148.901v36.119c0 2.743-2.006 5.133-4.863 5.794l-20.888 4.832c-10.774 2.492-27.945 10.577-27.945 10.577-5.973 6.163-36.108-43.292-12.473-43.292l59.763-20C245.628 142.931 248.496 145.604 248.496 148.901zM260.555 148.901v36.119c0 2.743 2.006 5.133 4.863 5.794l20.888 4.832c10.774 2.492 27.945 10.577 27.945 10.577 5.973 6.163 37.244-43.292 12.473-43.292l-59.763-20C263.424 142.931 260.555 145.604 260.555 148.901z" class="colorff8564 svgShape"/></svg>