<svg width="14" height="14" viewBox="0 0 14 14" fill="none" xmlns="http://www.w3.org/2000/svg">
<path d="M1.66669 12.3333H4.33335L5.33335 10.3333M10.3334 12.3333L9.66669 9H6.33335L7.00002 4.33333M6.33335 1.66667C6.33335 1.84348 6.40359 2.01305 6.52862 2.13807C6.65364 2.2631 6.82321 2.33333 7.00002 2.33333C7.17683 2.33333 7.3464 2.2631 7.47142 2.13807C7.59645 2.01305 7.66669 1.84348 7.66669 1.66667C7.66669 1.48986 7.59645 1.32029 7.47142 1.19526C7.3464 1.07024 7.17683 1 7.00002 1C6.82321 1 6.65364 1.07024 6.52862 1.19526C6.40359 1.32029 6.33335 1.48986 6.33335 1.66667Z" stroke="white" stroke-width="2" stroke-linecap="round" stroke-linejoin="round"/>
<path d="M1.66669 5.66659L4.33335 4.99992L7.00002 4.33325L9.66669 5.33325L12.3334 6.33325" stroke="white" stroke-width="2" stroke-linecap="round" stroke-linejoin="round"/>
</svg>
