<svg xmlns="http://www.w3.org/2000/svg" enable-background="new 0 0 512 512" version="1.0" viewBox="0 0 512 512"><path fill="#1b1b1b" d="M254.771,507.294c-53.055,0-113.205-35.77-115.739-37.292c-1.165-0.699-1.895-1.942-1.938-3.301
			l-1.394-43.587c-0.008-0.259,0.009-0.519,0.051-0.773l8.339-50.958c2.197-13.428-1.431-26.998-9.952-37.231
			c-5.459-6.555-8.987-12.426-11.137-16.613l-18.654,24.101c0.594,7.312,1.471,36.451-17.722,69.353
			c-0.614,1.053-1.674,1.768-2.88,1.942c-1.201,0.179-2.425-0.208-3.313-1.042L25.969,360.74c-0.805-0.757-1.262-1.812-1.262-2.916
			v-40.857c0-0.048,0.001-0.095,0.003-0.143c1.795-50.276,28.202-74.486,36.112-80.635c-1.533-9.755-5.849-45.496,6.415-80.234
			c12.891-36.517,57.436-52.173,62.786-53.936l71.668-42.661l6.781-44.589c0.254-1.675,1.537-3.008,3.201-3.327l22.57-4.328
			c13.612-2.609,27.427-2.655,41.055-0.133l24.079,4.456c1.676,0.311,2.971,1.647,3.227,3.332l6.782,44.589l71.667,42.661
			c5.346,1.761,49.896,17.417,62.786,53.936c12.374,35.051,6.543,69.822,4.645,78.962c7.206,7.366,34.528,38.557,36.35,89.554
			c0.002,0.047,0.003,0.095,0.003,0.143v33.211c0,1.085-0.44,2.123-1.221,2.876l-52.929,51.152c-0.882,0.854-2.106,1.25-3.326,1.087
			c-1.217-0.169-2.289-0.887-2.908-1.947c-19.192-32.901-18.316-62.04-17.723-69.353l-18.653-24.101
			c-2.149,4.188-5.678,10.059-11.136,16.613c-8.523,10.233-12.151,23.803-9.954,37.231l8.339,50.958
			c0.042,0.255,0.059,0.515,0.051,0.773l-1.394,43.587c-0.044,1.373-0.79,2.628-1.976,3.323
			C369.411,471.546,307.803,507.294,254.771,507.294z" class="color484f69 svgShape"/><path fill="#1677ff" d="M250.413,26.421v40.573c0,11.104-4.525,21.699-12.471,29.202l-6.777,6.398l7.004,5.929
			c7.752,6.562,12.244,16.354,12.244,26.69v168.175c0,3.098-3.995,4.176-5.469,1.476L191.8,227.859
			c-1.911-3.499-2.69-7.526-2.253-11.515c2.17-19.774,3.316-83.149-42.294-101.898c-4.63-1.903-4.992-8.496-0.563-10.854
			l59.534-31.704l34.672-48.678C243.908,18.981,250.413,21.176,250.413,26.421z" class="color9fabce svgShape"/><path fill="#1677ff" d="M114.216,114.779c6.027-2.874,12.982-3.088,19.236-0.746c10.423,3.903,26.356,10.267,34.07,26.796
			c5.011,10.738-48.043,6.593-53.194,46.803c-0.703,5.487-3.54,10.492-7.894,13.904c-3.472,2.721-4.255,2.722-27.78,23.883
			c-3.378,3.039-8.786,1.387-9.859-3.029C63.256,199.605,56.168,142.459,114.216,114.779z" class="color9fabce svgShape"/><path fill="#1677ff" d="M119.951 198.948c-.044-17.535 10.978-33.187 27.502-39.054l19.393-6.886c4.644-2.211 9.247 1.088 10.362 6.109 3.087 13.9 6.93 31.297 3.483 58.609-.469 3.714-3.018 6.843-6.564 8.045l-45.876 15.542c-4.232 1.434-8.585-1.819-8.406-6.284C119.994 231.304 119.991 214.554 119.951 198.948zM130.617 246.451c-4.748 1.043-8.065 5.325-7.979 10.186.19 10.723 1.34 29.321 6.515 44.641 11.65 34.484 38.777 59.506 41.401 85.549.162 1.606 2.013 2.425 3.328 1.488l59.628-67.301c4.358-3.105 5.61-9.032 2.88-13.634l-49.51-70.957c-2.853-3.676-7.737-5.103-12.118-3.535C164.292 236.638 144.723 243.353 130.617 246.451z" class="color9fabce svgShape"/><path fill="gray" d="M87.304 233.651c-5.229 11.56-12.506 29.993-14.433 46.643-.855 7.391-3.67 14.42-8.408 20.156-2.914 3.527-5.86 8.533-7.432 15.346-2.143 9.287-8.72 17.768-14.045 23.396-3.105 3.282-8.639 1.423-9.137-3.067-2.361-21.294-1.819-71.847 48.037-106.97C84.912 227.023 88.83 230.278 87.304 233.651zM109.536 212.481c1.953-2.366 5.8-.806 5.555 2.252-1.183 14.768-2.758 43.298.873 60.546 4.187 19.889-21.446 55.068-40.784 69.046-3.613 2.612-8.409-1.107-6.816-5.272l5.66-14.799c4.268-11.161 6.601-22.989 6.672-34.938C80.797 272.061 85.159 242.006 109.536 212.481z" class="colorff004f svgShape"/><path fill="#1677ff" d="M250.413 326.56v159.099c0 4.211-4.761 6.518-7.908 3.832l-17.475-14.912c-10.574-9.023-23.873-13.961-37.601-13.961h0c-6.023 0-11.003-4.836-11.359-11.032l-2.501-43.492c-.297-5.161 2-10.117 6.082-13.123l63.126-70.459C245.973 320.158 250.413 322.512 250.413 326.56zM154.76 364.861c0 0 11.093 45.266 15.087 88.54.308 3.334-2.865 6.013-6.203 6.285l-8.569.861c-3.57.291-6.749-2.251-7.25-5.797l-1.822-12.884c-1.613-11.401-1.074-23.003 1.588-34.205L154.76 364.861zM258.867 26.421v40.573c0 11.104 4.525 21.699 12.471 29.202l6.777 6.398-7.004 5.929c-7.752 6.562-12.244 16.354-12.244 26.69v168.175c0 3.098 3.995 4.176 5.469 1.476l53.144-77.005c1.911-3.499 2.69-7.526 2.253-11.515-2.17-19.774-3.316-83.149 42.294-101.898 4.63-1.903 4.992-8.496.564-10.854l-59.534-31.704L268.384 23.21C265.372 18.981 258.867 21.176 258.867 26.421z" class="color9fabce svgShape"/><path fill="#1677ff" d="M395.064,114.779c-6.027-2.874-12.982-3.088-19.236-0.746c-10.423,3.903-26.356,10.267-34.07,26.796
			c-5.001,10.716,49.38,7.184,53.425,46.654c0.575,5.606,3.404,10.745,7.853,14.203c3.317,2.578,4.502,2.967,27.589,23.733
			c3.378,3.039,8.786,1.387,9.859-3.029C446.024,199.605,453.112,142.459,395.064,114.779z" class="color9fabce svgShape"/><path fill="#1677ff" d="M389.328 198.948c.044-17.535-10.978-33.187-27.502-39.054l-19.393-6.886c-4.643-2.211-9.247 1.088-10.362 6.109-3.087 13.9-6.93 31.297-3.483 58.609.469 3.714 3.018 6.843 6.564 8.045l45.876 15.542c4.232 1.434 8.585-1.819 8.406-6.284C389.285 231.304 389.289 214.554 389.328 198.948zM378.663 246.451c4.748 1.043 8.065 5.325 7.979 10.186-.19 10.723-1.34 29.321-6.515 44.641-11.65 34.484-38.777 59.506-41.401 85.549-.162 1.606-2.013 2.425-3.328 1.488l-59.628-66.301c-4.358-3.105-5.61-9.032-2.88-13.634l49.51-71.957c2.853-3.676 7.737-5.103 12.118-3.535C344.988 236.638 364.557 243.353 378.663 246.451z" class="color9fabce svgShape"/><path fill="gray" d="M421.976 233.651c5.229 11.56 12.506 29.993 14.433 46.643.855 7.391 3.67 14.42 8.408 20.156 2.914 3.527 5.86 8.533 7.432 15.346 2.143 9.287 8.72 17.768 14.045 23.396 3.105 3.282 8.639 1.423 9.137-3.067 2.361-21.294 1.819-71.847-48.037-106.97C424.367 227.023 420.45 230.278 421.976 233.651zM399.743 212.481c-1.953-2.366-5.8-.806-5.555 2.252 1.183 14.768 2.758 43.298-.873 60.546-4.187 19.889 21.446 55.068 40.784 69.046 3.613 2.612 8.409-1.107 6.816-5.272l-5.66-14.799c-4.268-11.161-6.601-22.989-6.672-34.938C428.483 272.061 424.121 242.006 399.743 212.481z" class="colorff004f svgShape"/><path fill="#1677ff" d="M258.867 326.56v159.099c0 4.211 4.761 6.518 7.908 3.832l17.475-14.912c10.574-9.023 23.872-13.961 37.602-13.961h0c6.023 0 11.003-4.836 11.359-11.032l2.501-43.492c.297-5.161-2-10.117-6.082-13.123l-63.126-70.459C263.307 320.158 258.867 322.512 258.867 326.56zM354.52 364.861c0 0-11.093 45.266-15.087 88.54-.308 3.334 2.865 6.013 6.203 6.285l8.569.861c3.57.291 6.749-2.251 7.25-5.797l1.822-12.884c1.613-11.401 1.074-23.003-1.588-34.205L354.52 364.861z" class="color9fabce svgShape"/></svg>